<svg width="103" height="33" viewBox="0 0 103 33" fill="none" xmlns="http://www.w3.org/2000/svg">
<path fill-rule="evenodd" clip-rule="evenodd" d="M19.6354 31.3333C19.3943 30.5697 19.2335 29.6855 19.1531 28.6808C18.2287 29.7257 17.0029 30.5697 15.4757 31.2128C13.9485 31.8156 12.1801 32.117 10.1705 32.117C6.75436 32.117 4.24245 31.3735 2.63483 29.8865C1.06741 28.3592 0.283691 26.3899 0.283691 23.9785C0.283691 21.8484 0.625311 20.1604 1.30855 18.9145C1.99179 17.6284 2.93626 16.6236 4.14198 15.9002C5.34769 15.1768 6.77445 14.6543 8.42226 14.3328C10.1103 13.971 11.9389 13.6495 13.9083 13.3682C15.8776 13.0868 17.2039 12.7251 17.8871 12.283C18.5704 11.8007 18.912 11.0371 18.912 9.99218C18.912 9.02761 18.4498 8.28408 17.5254 7.76161C16.6412 7.19894 15.4355 6.91761 13.9083 6.91761C12.0997 6.91761 10.7935 7.31951 9.98969 8.12332C9.22607 8.92713 8.74379 9.99218 8.54284 11.3185H1.24826C1.28845 9.79123 1.5296 8.38456 1.97169 7.09846C2.45398 5.81237 3.1975 4.70713 4.20226 3.78275C5.24722 2.85837 6.5936 2.15504 8.24141 1.67275C9.88922 1.15027 11.8987 0.889038 14.27 0.889038C16.601 0.889038 18.5704 1.15027 20.178 1.67275C21.8258 2.19523 23.132 2.95885 24.0966 3.96361C25.1013 4.92818 25.8247 6.15399 26.2668 7.64104C26.7089 9.08789 26.93 10.7357 26.93 12.5845V31.3333H19.6354ZM30.0917 31.3333V1.67275H37.4465V5.22961C38.0896 4.22484 38.7527 3.44113 39.436 2.87846C40.1594 2.3158 40.8828 1.8938 41.6063 1.61246C42.3699 1.29094 43.1335 1.08999 43.8971 1.00961C44.6607 0.929227 45.4444 0.889038 46.2483 0.889038H47.2731V8.90704C46.5497 8.78646 45.8263 8.72618 45.1028 8.72618C40.3202 8.72618 37.9288 11.1175 37.9288 15.9002V31.3333H30.0917ZM73.2473 25.3048C74.0511 23.8981 74.5535 22.3307 74.7544 20.6025H66.857C66.6963 22.2101 66.0733 23.4359 64.9882 24.2799C63.903 25.1239 62.5968 25.5459 61.0696 25.5459C59.5424 25.5459 58.196 24.7622 57.0305 23.1948C55.8649 21.6273 55.2822 19.2159 55.2822 15.9605C55.2822 14.3528 55.4429 13.0065 55.7645 11.9213C56.086 10.796 56.508 9.9118 57.0305 9.26875C57.5931 8.58551 58.2362 8.10323 58.9596 7.8219C59.683 7.54056 60.4667 7.39989 61.3107 7.39989C62.7978 7.39989 64.0437 7.84199 65.0485 8.72618C66.0934 9.57018 66.7164 10.7558 66.9173 12.283H74.8147C74.6942 10.5548 74.2923 8.98742 73.609 7.58075C72.9258 6.17408 71.9813 4.96837 70.7756 3.96361C69.6101 2.95885 68.2235 2.19523 66.6159 1.67275C65.0485 1.15027 63.3002 0.889038 61.371 0.889038C59.2811 0.889038 57.3721 1.19047 55.6439 1.79332C53.9559 2.39618 52.509 3.32056 51.3033 4.56646C50.0976 5.77218 49.1531 7.33961 48.4699 9.26875C47.8268 11.1979 47.5053 13.4888 47.5053 16.1413C47.5053 18.7939 47.8268 21.1249 48.4699 23.1345C49.1531 25.1038 50.0976 26.7717 51.3033 28.1382C52.509 29.4645 53.9358 30.4692 55.5836 31.1525C57.2716 31.7955 59.1204 32.117 61.1299 32.117C62.9384 32.117 64.6064 31.8357 66.1336 31.273C67.701 30.7104 69.0876 29.9267 70.2933 28.9219C71.499 27.9171 72.4837 26.7114 73.2473 25.3048ZM94.7443 16.8045C94.3424 17.2064 93.7597 17.5279 92.9961 17.769C92.2324 18.0102 91.1272 18.2714 89.6804 18.5528C87.4297 18.9948 85.8823 19.5575 85.0383 20.2408C84.1943 20.924 83.7723 21.9087 83.7723 23.1948C83.7723 25.4052 85.0384 26.5105 87.5704 26.5105C88.5751 26.5105 89.4995 26.3497 90.3435 26.0282C91.2277 25.6665 91.9712 25.2043 92.5741 24.6416C93.2171 24.0388 93.7195 23.3555 94.0812 22.5919C94.4831 21.7881 94.6841 20.9441 94.6841 20.0599L94.7443 16.8045ZM95.2869 31.3333C95.0458 30.5697 94.885 29.6855 94.8046 28.6808C93.8803 29.7257 92.6544 30.5697 91.1272 31.2128C89.6 31.8156 87.8316 32.117 85.8221 32.117C82.4059 32.117 79.894 31.3735 78.2863 29.8865C76.7189 28.3592 75.9352 26.3899 75.9352 23.9785C75.9352 21.8484 76.2768 20.1604 76.9601 18.9145C77.6433 17.6284 78.5878 16.6236 79.7935 15.9002C80.9992 15.1768 82.426 14.6543 84.0738 14.3328C85.7618 13.971 87.5904 13.6495 89.5598 13.3682C91.5291 13.0868 92.8554 12.7251 93.5386 12.283C94.2219 11.8007 94.5635 11.0371 94.5635 9.99218C94.5635 9.02761 94.1013 8.28408 93.1769 7.76161C92.2927 7.19894 91.087 6.91761 89.5598 6.91761C87.7512 6.91761 86.445 7.31951 85.6412 8.12332C84.8776 8.92713 84.3953 9.99218 84.1943 11.3185H76.8998C76.94 9.79123 77.1811 8.38456 77.6232 7.09846C78.1055 5.81237 78.849 4.70713 79.8538 3.78275C80.8987 2.85837 82.2451 2.15504 83.8929 1.67275C85.5407 1.15027 87.5503 0.889038 89.9215 0.889038C92.2525 0.889038 94.2219 1.15027 95.8295 1.67275C97.4773 2.19523 98.7835 2.95885 99.7481 3.96361C100.753 4.92818 101.476 6.15399 101.918 7.64104C102.36 9.08789 102.581 10.7357 102.581 12.5845V31.3333H95.2869ZM7.31268 21.0742L7.31614 21.076C7.61976 21.2127 7.95559 21.2176 8.28741 21.0899C8.79046 20.8962 9.23464 20.4084 9.47735 19.7837C9.81312 18.9189 9.69811 17.9971 9.19111 17.4901C9.08389 17.3826 8.95855 17.295 8.82161 17.232L8.81815 17.2303C8.51578 17.0934 8.17925 17.0893 7.84743 17.217C7.34439 17.4107 6.90021 17.8984 6.6575 18.5232C6.32172 19.3879 6.43674 20.3098 6.94374 20.8168C7.05083 20.924 7.17598 21.0114 7.31268 21.0742ZM11.9327 26.4192C11.8072 25.9648 11.6887 25.5352 11.789 25.0768C12.0685 23.8095 12.2371 23.0444 11.4551 22.2624C10.6731 21.4804 9.90729 21.6482 8.63888 21.9266C8.18021 22.0269 7.75028 21.9083 7.29481 21.7827L7.29337 21.7823L7.29333 21.7823C6.77066 21.638 6.23065 21.4889 5.6973 21.7247C5.50082 21.8055 5.32386 21.9242 5.176 22.0744C4.54979 22.7006 4.55706 23.7269 5.19196 24.3618C5.51957 24.6894 5.97534 24.9309 6.45768 25.1864C6.92145 25.4321 7.40088 25.6862 7.71797 26.0032C8.03505 26.3203 8.28815 26.7988 8.53255 27.2613L8.53946 27.2743C8.79239 27.7504 9.03087 28.1993 9.35644 28.5249C9.99041 29.1588 11.0158 29.1652 11.642 28.539C11.7916 28.3904 11.9097 28.2128 11.9898 28.0158C12.226 27.4822 12.0769 26.9419 11.9328 26.4195L11.9327 26.4192ZM10.4925 20.8818C10.2061 20.5953 10.0706 20.1734 10.111 19.6937C10.1469 19.2666 10.3219 18.8184 10.6054 18.433C11.28 17.5141 12.3403 17.1983 13.0206 17.7128C13.0648 17.7461 13.1066 17.7824 13.1457 17.8215C13.4319 18.1077 13.568 18.5298 13.5277 19.0086C13.492 19.4356 13.3166 19.8841 13.0328 20.2702C12.3582 21.1891 11.2979 21.5049 10.6175 20.9904C10.5734 20.9572 10.5316 20.9209 10.4925 20.8818ZM12.7273 23.1002C12.7605 23.1443 12.7968 23.1861 12.8359 23.2252C13.1226 23.5118 13.5443 23.6471 14.024 23.6067C14.4509 23.5707 14.8984 23.3949 15.2848 23.1117C16.2034 22.4375 16.5192 21.3772 16.005 20.6965C15.9718 20.6524 15.9355 20.6106 15.8964 20.5715C15.6098 20.2856 15.1877 20.1495 14.7089 20.1898C14.2819 20.2255 13.8334 20.4009 13.4471 20.6853C12.5286 21.3595 12.2128 22.4198 12.7273 23.1002ZM16.4863 24.8988C16.6225 25.2019 16.627 25.5377 16.4997 25.8699C16.3066 26.3726 15.8197 26.8179 15.1975 27.0621C14.3307 27.3973 13.4088 27.2819 12.9013 26.7743C12.7938 26.6671 12.7063 26.5417 12.6433 26.4048L12.6417 26.4016C12.5046 26.0976 12.4997 25.7614 12.6274 25.4292C12.8204 24.9269 13.3089 24.4823 13.934 24.24C14.7881 23.9079 15.7046 24.0179 16.2145 24.5135L16.2263 24.5253C16.3338 24.6325 16.4213 24.7579 16.4844 24.8948L16.4863 24.8988Z" fill="black"/>
</svg>
